<svg width="44" height="80" viewBox="0 0 44 80" fill="none" xmlns="http://www.w3.org/2000/svg">
<path d="M1 9H23H43V59C43 70.598 33.598 80 22 80C10.402 80 1 70.598 1 59V9Z" fill="#F4E897" fill-opacity="0.5"/>
<path d="M1 25C1 25 8 28 14 28.5C20 29 43 25 43 25V59C43 70.598 33.598 80 22 80C10.402 80 1 70.598 1 59V25Z" fill="#DDD532"/>
<g clip-path="url(#clip0_1145_264)">
<path d="M35.1399 35.2697C35.1436 34.9087 35.0423 34.5538 34.847 34.244C34.6517 33.9342 34.37 33.6816 34.0331 33.5142C34.089 32.9603 34.1249 32.4159 34.1363 31.8892C34.1841 30.0729 33.8055 28.2692 33.0281 26.6089C30.5623 21.4973 23.5146 21.1992 20.2087 25.7188C19.6123 26.5354 19.2052 27.5343 18.8941 28.5768C18.8382 28.5768 18.7837 28.5604 18.7264 28.5604C17.6411 28.5604 16.7809 29.4355 16.8039 30.5161C16.8098 30.8894 16.9248 31.2537 17.1362 31.5686C17.3476 31.8834 17.647 32.1362 18.001 32.2989L17.9493 32.5316C17.2798 35.3895 15.7602 38.3236 14.0456 40.644C13.9395 40.7869 13.8277 40.9284 13.7159 41.07C13.4129 40.8798 13.0583 40.7772 12.6951 40.7746C11.6257 40.7746 10.7856 41.6497 10.8171 42.7303C10.8287 43.1567 10.9789 43.5693 11.2472 43.9116C9.4867 45.9189 7.91545 48.027 7.99716 50.938C8.09895 54.5362 10.5031 58.0596 14.0986 58.8041C17.4691 59.5049 20.5084 58.31 23.0975 56.2183C23.4165 56.467 23.8158 56.6044 24.2286 56.6075C25.278 56.6075 26.1195 55.7311 26.1066 54.6505C26.1028 54.2767 25.9923 53.9108 25.7869 53.5917C27.9302 51.1122 29.6204 48.1603 30.7243 45.5787C30.7831 45.5787 30.8404 45.5964 30.9006 45.5964C31.9644 45.5964 32.8246 44.7186 32.8203 43.6394C32.8216 43.3401 32.7519 43.0444 32.6164 42.7742C32.4809 42.5039 32.283 42.2661 32.0375 42.0784C32.5407 40.5814 33.0324 38.9034 33.4123 37.2022C34.3858 37.092 35.1399 36.2741 35.1399 35.2697Z" fill="#87A321"/>
<path d="M15.5982 53.1848C15.3012 53.1814 15.0087 53.1165 14.741 52.9944C14.4733 52.8724 14.2369 52.6963 14.0484 52.4785C13.6623 52.0445 13.4635 51.4877 13.4922 50.9203C13.5097 50.3733 13.7466 49.8534 14.1545 49.4668C14.2163 49.4074 14.2908 49.3611 14.3728 49.331C14.4549 49.301 14.5428 49.2878 14.6306 49.2925C14.7185 49.2971 14.8043 49.3194 14.8824 49.3579C14.9604 49.3964 15.029 49.4502 15.0835 49.5158C15.2009 49.6537 15.2609 49.8276 15.2522 50.0047C15.2435 50.1818 15.1666 50.3497 15.0362 50.4766C14.8948 50.611 14.8127 50.7916 14.8068 50.9815C14.797 51.1908 14.8707 51.3959 15.0133 51.5558C15.0759 51.6318 15.1545 51.6946 15.2442 51.74C15.3338 51.7855 15.4325 51.8127 15.5338 51.8199C15.6352 51.8271 15.737 51.8141 15.8328 51.7817C15.9285 51.7494 16.0161 51.6984 16.0899 51.632C16.1518 51.5726 16.2264 51.5263 16.3086 51.4962C16.3908 51.4661 16.4788 51.453 16.5667 51.4576C16.6547 51.4623 16.7406 51.4846 16.8188 51.5231C16.897 51.5616 16.9657 51.6154 17.0203 51.681C17.1378 51.8189 17.1978 51.9931 17.1888 52.1702C17.1798 52.3474 17.1025 52.5153 16.9716 52.6418C16.7916 52.8137 16.5776 52.9502 16.3419 53.0434C16.1062 53.1366 15.8535 53.1846 15.5982 53.1848Z" fill="#6E8A13"/>
<path d="M26.5453 43.3808H26.5052C26.3229 43.3696 26.1528 43.2905 26.0317 43.1608C25.9106 43.031 25.8484 42.8611 25.8586 42.6881C25.8586 42.3125 26.1682 41.9954 26.5295 42.0212H26.5453C26.6467 42.0212 26.747 42.0013 26.84 41.9629C26.9329 41.9245 27.0166 41.8684 27.0858 41.798C27.1919 41.6891 27.2633 41.5538 27.2916 41.4079C27.3199 41.2619 27.304 41.1114 27.2457 40.9737C27.1875 40.836 27.0893 40.7168 26.9625 40.63C26.8357 40.5432 26.6855 40.4924 26.5295 40.4834C26.3394 40.482 26.1577 40.4089 26.0243 40.2802C25.891 40.1516 25.8169 39.978 25.8184 39.7975C25.82 39.617 25.897 39.4445 26.0325 39.3179C26.168 39.1913 26.3509 39.121 26.541 39.1225H26.5539C27.7008 39.1456 28.6326 40.116 28.6212 41.2863C28.6201 41.8386 28.3989 42.3701 28.0018 42.7738C27.816 42.9646 27.5908 43.1169 27.3402 43.2214C27.0896 43.3258 26.819 43.3801 26.5453 43.3808Z" fill="#6E8A13"/>
<path d="M24.045 31.7436C23.9163 31.7411 23.7911 31.7027 23.6851 31.6333C23.5791 31.5638 23.4969 31.4664 23.4487 31.353C23.2131 30.8353 23.1911 30.2524 23.387 29.7199C23.4797 29.4597 23.6266 29.2197 23.8189 29.0145C24.0113 28.8092 24.2452 28.6427 24.5067 28.525C25.5618 28.0623 26.8076 28.5468 27.2865 29.607C27.3618 29.7681 27.3709 29.9502 27.312 30.1174C27.2531 30.2846 27.1305 30.4249 26.9682 30.5106C26.8887 30.5475 26.802 30.5683 26.7136 30.5716C26.6252 30.5749 26.537 30.5606 26.4547 30.5298C26.3724 30.4989 26.2978 30.4521 26.2357 30.3923C26.1735 30.3326 26.1252 30.2611 26.0937 30.1826C26.0535 30.0878 25.9936 30.0016 25.9175 29.9293C25.8413 29.857 25.7506 29.8001 25.6507 29.762C25.5508 29.7238 25.4438 29.7053 25.3361 29.7074C25.2284 29.7095 25.1224 29.7323 25.0242 29.7744C24.9295 29.8162 24.8446 29.8757 24.7746 29.9493C24.7047 30.023 24.6511 30.1093 24.6171 30.2031C24.5497 30.3884 24.5585 30.591 24.6414 30.7706C24.7167 30.9316 24.7262 31.1136 24.6679 31.2809C24.6095 31.4482 24.4877 31.5889 24.326 31.6756C24.2393 31.7189 24.143 31.7423 24.045 31.7436Z" fill="#6E8A13"/>
<path d="M17.9393 28.6516C17.7406 28.1288 17.6911 27.5653 17.7959 27.0185L18.2088 27.2907C18.2088 27.2907 17.8217 28.1753 17.9393 28.6516Z" fill="#666666"/>
<path d="M10.6206 44.7118C10.826 44.4705 11.0524 44.2461 11.2973 44.0408C11.5453 43.8217 11.2973 44.0408 11.1138 43.702C11.099 43.6796 11.0856 43.6564 11.0737 43.6326C10.8164 43.7555 10.5911 43.9312 10.4142 44.147C10.1719 44.4777 10.3267 44.6573 10.6149 44.7213L10.6206 44.7118Z" fill="#8C6239"/>
<path d="M35.428 44.1686C35.1097 42.2755 34.5535 40.4152 34.38 38.5044C34.1779 36.2902 34.4933 34.0651 34.8918 31.8754C35.4108 29.0175 36.0387 25.9391 34.6811 23.3479C34.2256 22.5267 33.6401 21.7767 32.945 21.1242C32.1292 20.3281 31.1959 19.5972 30.0777 19.2543C29.3878 19.0538 28.6666 18.9677 27.9459 18.9998C24.4608 19.0896 21.0961 21.0548 19.4388 23.9671C17.3644 27.613 17.9894 32.1326 16.497 36.0208C16.0756 37.1258 15.4935 38.1656 14.9 39.1999C14.5467 39.8512 14.1537 40.4823 13.723 41.0902L13.7574 41.1011C13.809 41.0874 13.8621 41.0766 13.9151 41.0643C14.1232 40.8997 14.3151 40.7175 14.4885 40.5199C14.7351 40.2804 15.0262 39.8803 15.3114 39.6843C15.6813 39.4312 16.1057 38.469 16.315 38.1873C16.8884 36.9625 16.9515 36.5039 17.2755 35.1933C17.5622 34.0134 17.7715 32.775 18.4683 31.7597C19.4718 30.3008 21.4144 29.5605 23.2437 29.6966C25.073 29.8327 26.7704 30.7527 28.052 32.0006C29.0555 32.9778 29.8627 34.2488 29.8297 35.6138C29.8111 36.4685 29.4656 37.2823 29.133 38.0785C27.6038 41.7484 26.248 45.4805 25.0658 49.2747C24.9224 49.7143 24.7934 50.1852 24.9325 50.6275C25.1862 51.4372 26.2041 51.7556 27.0829 51.8781C27.3309 51.9122 27.5775 51.9407 27.8269 51.9625C29.4225 52.109 31.0324 52.0171 32.598 51.6903C33.15 51.5733 33.7119 51.4181 34.1506 51.0847C34.5893 50.7513 34.8416 50.3022 35.0466 49.8286C35.8122 48.0621 35.7462 46.0616 35.428 44.1686Z" fill="#8C6239"/>
<path d="M22.4495 26.1679C22.8607 25.5278 23.1223 24.8112 23.2164 24.0667C23.2709 23.4502 23.1218 22.9684 22.7548 22.7657C22.3878 22.5629 20.2517 21.5939 20.2517 21.5939C20.2517 21.5939 20.2402 23.9619 19.7887 24.6981C19.3371 25.4344 17.1752 26.6211 17.1752 26.6211C17.1752 26.6211 19.1177 27.9045 19.4847 28.1072C19.8517 28.31 20.3678 28.1957 20.904 27.8459C21.5404 27.3987 22.0675 26.8263 22.4495 26.1679Z" fill="#A67C52"/>
<path d="M21.3226 27.0212L21.5706 27.2934L23.7038 27.7017L23.5132 27.2934C23.5132 27.2934 22.1125 26.7191 21.3226 27.0212Z" fill="#4D4D4D"/>
<path d="M21.3226 27.0212C22.1125 26.2714 22.7232 24.4722 22.7232 24.4722C22.7232 24.4722 22.9125 26.5572 23.5132 27.2907C22.7956 27.1249 22.061 27.0345 21.3226 27.0212Z" fill="#666666"/>
<path d="M29.9014 26.7028C29.0842 28.5455 26.9639 29.4545 25.1704 28.7346C24.7404 28.5618 23.3928 27.4594 23.0831 27.1492C22.1154 26.1761 22.7777 25.4943 23.3971 24.098C24.2157 22.2567 25.5475 20.5351 27.3395 21.255C27.9029 21.4796 29.1616 22.65 29.5086 23.0936C29.8983 23.6112 30.1394 24.216 30.2083 24.8488C30.2771 25.4816 30.1714 26.1205 29.9014 26.7028Z" fill="#A67C52"/>
<path d="M28.8547 25.7784C29.6729 23.937 28.879 21.8607 27.0815 21.141C25.2839 20.4212 23.1634 21.3305 22.3452 23.172C21.527 25.0134 22.3209 27.0896 24.1185 27.8094C25.916 28.5291 28.0365 27.6198 28.8547 25.7784Z" fill="#C69C6D"/>
<path d="M27.7292 25.1202C28.329 23.7705 27.7477 22.2489 26.4309 21.7216C25.1141 21.1944 23.5604 21.8611 22.9607 23.2109C22.361 24.5606 22.9423 26.0822 24.259 26.6095C25.5758 27.1367 27.1295 26.47 27.7292 25.1202Z" fill="#29ABE2"/>
<path d="M23.2121 23.5182C23.8114 22.1682 25.3626 21.5014 26.6829 22.028C26.9981 22.155 27.2815 22.3437 27.5144 22.5819C27.2506 22.1987 26.8729 21.8985 26.4292 21.7191C25.1117 21.1924 23.5619 21.8552 22.9584 23.208C22.7407 23.6747 22.669 24.191 22.7518 24.6953C22.8347 25.1996 23.0686 25.6707 23.4257 26.0523C23.1734 25.6791 23.0218 25.2527 22.9846 24.8107C22.9473 24.3686 23.0255 23.9247 23.2121 23.5182Z" fill="#A67C52"/>
<path opacity="0.1" d="M23.3928 23.9306C23.9934 22.5806 25.5432 21.9137 26.8635 22.4418C27.2268 22.5885 27.5471 22.8169 27.7968 23.1072C27.6823 22.7987 27.5016 22.516 27.2662 22.2771C27.0308 22.0382 26.7458 21.8482 26.4292 21.7191C25.1117 21.1924 23.5619 21.8552 22.9584 23.208C22.7524 23.6522 22.6778 24.1412 22.7424 24.6227C22.8071 25.1041 23.0086 25.5597 23.3254 25.9407C23.0796 25.2866 23.1037 24.5685 23.3928 23.9306Z" fill="#1A0000"/>
<path d="M19.9695 24.8003C20.8192 23.4139 20.9476 21.9806 20.2564 21.5988C19.5652 21.2171 18.3161 22.0315 17.4664 23.4179C16.6167 24.8043 16.4883 26.2376 17.1795 26.6194C17.8707 27.0011 19.1198 26.1867 19.9695 24.8003Z" fill="#C69C6D"/>
<path d="M19.5314 24.5572C20.1748 23.5074 20.272 22.4219 19.7485 22.1327C19.2249 21.8436 18.2789 22.4603 17.6355 23.5102C16.9921 24.56 16.8949 25.6455 17.4185 25.9346C17.942 26.2238 18.888 25.6071 19.5314 24.5572Z" fill="#29ABE2"/>
<path d="M17.935 23.7741C18.5471 22.7752 19.4331 22.1696 19.9679 22.3628C19.9182 22.2658 19.8401 22.1845 19.7428 22.1287C19.2195 21.8389 18.2733 22.4567 17.6296 23.506C16.9859 24.5553 16.8884 25.6413 17.4131 25.9311C17.4384 25.9442 17.4648 25.9551 17.492 25.9638C17.2483 25.512 17.4088 24.6315 17.935 23.7741Z" fill="#A67C52"/>
<path opacity="0.1" d="M17.9995 24.0435C18.6217 23.0269 19.5263 22.42 20.0596 22.6432C20.0505 22.5404 20.0174 22.4409 19.9626 22.3519C19.9078 22.2629 19.8327 22.1866 19.7428 22.1287C19.2195 21.8389 18.2733 22.4554 17.6296 23.506C16.9859 24.5566 16.8884 25.6413 17.4131 25.9311C17.4303 25.9395 17.448 25.9468 17.4662 25.9529C17.383 25.4684 17.568 24.7485 17.9995 24.0435Z" fill="#1A0000"/>
<path opacity="0.1" d="M28.5194 36.3557C28.4965 36.4334 28.4652 36.5086 28.4262 36.5803C28.309 36.7664 28.1642 36.9356 27.9961 37.0825C27.9918 37.0449 27.9918 37.0071 27.9961 36.9695C28.011 36.83 28.0685 36.6976 28.1614 36.5886C28.2544 36.4796 28.3788 36.3987 28.5194 36.3557Z" fill="#1A0000"/>
<path opacity="0.1" d="M35.0481 49.837C34.8431 50.3106 34.5721 50.7719 34.1521 51.0931C33.732 51.4143 33.1485 51.5816 32.5995 51.6987C31.0339 52.0255 29.424 52.1173 27.8284 51.9709L27.7968 51.9436C30.2627 49.6042 31.811 41.5476 31.173 33.6883C30.7515 28.5101 35.0925 22.9793 30.0863 19.2627C31.1974 19.6056 32.1321 20.3364 32.9536 21.1326C33.6456 21.7856 34.2286 22.535 34.6825 23.3549C36.043 25.9407 35.4108 29.0286 34.8918 31.8824C34.4933 34.0721 34.175 36.2972 34.38 38.5114C34.5535 40.4167 35.1097 42.2825 35.428 44.1756C35.7463 46.0686 35.8122 48.0623 35.0481 49.837Z" fill="#1A0000"/>
<path d="M18.2059 27.2907C17.6153 27.6146 17.9407 28.6516 17.9407 28.6516L18.0195 28.2011C18.0195 28.2011 18.3063 27.5887 18.907 27.7439L18.2059 27.2907Z" fill="#4D4D4D"/>
<path d="M35.924 27.4907C35.2903 26.4483 33.0568 24.6818 30.0462 24.1048L29.7408 24.0299C29.9774 24.9649 29.1057 27.1355 29.1057 27.1355C29.1057 27.1355 35.1542 28.1154 35.6531 30.9856C35.9168 30.5528 36.1147 27.8051 35.924 27.4907Z" fill="#666666"/>
<path d="M29.1057 27.1355L29.3695 27.5697C34.4818 28.5318 35.071 30.893 35.071 30.893L34.8918 31.8756C35.1809 31.6078 35.4363 31.3091 35.6531 30.9856C35.1542 28.1181 29.1057 27.1355 29.1057 27.1355Z" fill="#4D4D4D"/>
</g>
<path d="M1 36.2377C1 36.2377 16 31.9754 22 36.2377C28 40.5 43 36.2377 43 36.2377V59C43 70.598 33.598 80 22 80C10.402 80 1 70.598 1 59V36.2377Z" fill="#DDD532" fill-opacity="0.65"/>
<rect x="3" width="38" height="8" fill="#C9A06C"/>
<path d="M2.5 6.5H41.5V59C41.5 69.7696 32.7696 78.5 22 78.5C11.2304 78.5 2.5 69.7696 2.5 59V6.5Z" stroke="#92CCFF" stroke-width="3"/>
<rect y="5" width="44" height="4" fill="#92CCFF"/>
<path fill-rule="evenodd" clip-rule="evenodd" d="M3 0V5H1H0V9H1V59C1 70.598 10.402 80 22 80V5V1V0H3Z" fill="white" fill-opacity="0.3"/>
<defs>
<clipPath id="clip0_1145_264">
<rect width="28" height="40" fill="white" transform="translate(8 19)"/>
</clipPath>
</defs>
</svg>
