<svg width="586" height="559" viewBox="0 0 586 559" xmlns="http://www.w3.org/2000/svg">
<g fill="none" fill-rule="evenodd">
<path fill="#FC6D26" d="m293.19 559.096 90.918-279.876H202.272l90.918 279.876z"/>
<path fill="#E24329" d="m293.19 559.096-90.918-279.876H28.33l264.86 279.876z"/>
<path fill="#FC6D26" d="M28.33 279.22 8.802 342.31c-1.96 6.032.26 12.675 5.574 16.68L293.19 559.096 28.33 279.22z"/>
<path fill="#FCA326" d="M28.33 279.22h173.942L161.446 93.71c-2.045-6.295-10.917-6.295-12.962 0L28.33 279.22z"/>
<path fill="#E24329" d="m293.19 559.096 90.918-279.876H557.85L293.19 559.096z"/>
<path fill="#FC6D26" d="M557.85 279.22 577.378 342.31c1.96 6.032-.26 12.675-5.574 16.68L293.19 559.096 557.85 279.22z"/>
<path fill="#FCA326" d="M557.85 279.22H383.908L424.734 93.71c2.045-6.295 10.917-6.295 12.962 0L557.85 279.22z"/>
</g>
</svg>